<svg xmlns="http://www.w3.org/2000/svg" xmlns:xlink="http://www.w3.org/1999/xlink" width="128px" height="128px" viewBox="0 0 128 128" version="1.1">
<g id="surface1">
<path style=" stroke:none;fill-rule:nonzero;fill:#0165fc;fill-opacity:1;" d="M 106.75 17.527344 C 98.585938 12.484375 89.359375 11.152344 83.132812 14.101562 C 81.824219 14.492188 80.960938 13.734375 80.640625 13.378906 C 80.3125 13.011719 79.613281 12.011719 80.261719 10.675781 L 82.832031 5.390625 C 83.738281 3.527344 82.960938 1.285156 81.101562 0.378906 C 79.238281 -0.527344 76.992188 0.25 76.085938 2.109375 L 73.519531 7.394531 C 71.742188 11.046875 72.347656 15.359375 75.054688 18.386719 C 77.765625 21.410156 81.988281 22.480469 85.8125 21.113281 C 85.953125 21.0625 86.09375 21.003906 86.226562 20.9375 C 89.363281 19.371094 95.886719 19.632812 102.804688 23.90625 C 106.921875 26.453125 116.5 33.992188 116.5 49 C 116.5 63.636719 111.738281 74.46875 100.070312 86.390625 C 87.996094 98.726562 72.542969 104.03125 54.148438 102.160156 C 40.121094 100.734375 29.550781 95.460938 29.449219 95.40625 C 28.285156 94.816406 26.898438 94.871094 25.789062 95.554688 C 24.675781 96.238281 24 97.445312 24 98.75 L 24 120.5 L 11.5 120.5 L 11.5 96.25 C 11.5 90.046875 16.546875 85 22.75 85 L 29.152344 85 C 37.390625 85 44.949219 80.851562 49.371094 73.902344 L 49.558594 73.609375 C 53.765625 66.996094 54.476562 58.742188 51.460938 51.527344 C 44.023438 33.714844 44.671875 22.433594 46.523438 16.105469 C 48.457031 9.515625 51.964844 6.933594 52.113281 6.828125 L 52.070312 6.855469 C 53.0625 6.183594 53.71875 5.042969 53.71875 3.75 C 53.71875 1.679688 52.039062 0 49.96875 0 C 49.1875 0 48.464844 0.238281 47.863281 0.644531 C 47.039062 1.207031 27.957031 14.71875 44.542969 54.417969 C 46.613281 59.371094 46.121094 65.039062 43.230469 69.582031 L 43.046875 69.875 C 40.007812 74.648438 34.8125 77.5 29.152344 77.5 L 22.75 77.5 C 12.410156 77.5 4 85.914062 4 96.25 L 4 124.25 C 4 126.320312 5.679688 128 7.75 128 L 27.75 128 C 29.820312 128 31.5 126.320312 31.5 124.25 L 31.5 104.425781 C 36.324219 106.25 44.003906 108.632812 53.128906 109.59375 C 73.722656 111.757812 91.808594 105.550781 105.429688 91.636719 C 118.445312 78.339844 124 65.589844 124 49 C 124 35.777344 117.710938 24.304688 106.75 17.527344 Z M 106.75 17.527344 "/>
<path style=" stroke:none;fill-rule:nonzero;fill:#0165fc;fill-opacity:1;" d="M 66.328125 42.808594 C 72.601562 46.292969 76.5 52.914062 76.5 60.089844 L 76.5 60.117188 L 67.128906 74.171875 C 66.363281 75.320312 66.292969 76.800781 66.945312 78.019531 C 67.597656 79.238281 68.867188 80 70.25 80 L 90.25 80 C 91.632812 80 92.902344 79.238281 93.558594 78.019531 C 94.210938 76.800781 94.136719 75.320312 93.371094 74.171875 L 84 60.117188 L 84 60.089844 C 84 50.191406 78.625 41.058594 69.972656 36.25 C 64.746094 33.347656 61.5 27.832031 61.5 21.851562 C 61.5 18.867188 62.3125 15.9375 63.847656 13.378906 L 68.464844 5.679688 C 69.53125 3.902344 68.957031 1.601562 67.179688 0.535156 C 65.402344 -0.53125 63.101562 0.046875 62.035156 1.820312 L 57.417969 9.519531 C 55.179688 13.242188 54 17.507812 54 21.851562 C 54 30.550781 58.722656 38.582031 66.328125 42.808594 Z M 77.257812 72.5 L 80.25 68.011719 L 83.242188 72.5 Z M 77.257812 72.5 "/>
</g>
</svg>