<svg xmlns="http://www.w3.org/2000/svg" xmlns:xlink="http://www.w3.org/1999/xlink" width="128px" height="128px" viewBox="0 0 128 128" version="1.1">
<g id="surface1">
<path style=" stroke:none;fill-rule:nonzero;fill:rgb(100%,100%,100%);fill-opacity:1;" d="M 44.804688 5.382812 C 41.863281 4.175781 38.789062 6.753906 39.402344 9.867188 C 44.214844 34.234375 48.820312 88.726562 49.726562 114.316406 C 49.882812 118.617188 53.414062 122 57.71875 122 L 70.1875 122 C 74.484375 122 78.011719 118.632812 78.175781 114.332031 C 79.136719 89.578125 83.761719 34.332031 88.554688 9.859375 C 89.167969 6.742188 86.09375 4.179688 83.152344 5.382812 C 77.847656 7.566406 70.476562 10 64 10 C 57.515625 10 50.125 7.5625 44.804688 5.382812 Z M 44.804688 5.382812 "/>
<path style=" stroke:none;fill-rule:nonzero;fill:rgb(100%,100%,100%);fill-opacity:1;" d="M 83.15625 5.386719 C 80.132812 6.632812 76.433594 7.941406 72.617188 8.847656 C 72.632812 9.179688 72.628906 9.515625 72.554688 9.859375 C 67.875 33.761719 65.285156 96.035156 64.269531 122 L 70.1875 122 C 74.484375 122 78.011719 118.632812 78.175781 114.332031 C 79.136719 89.578125 83.761719 34.332031 88.554688 9.859375 C 89.171875 6.742188 86.09375 4.179688 83.15625 5.386719 Z M 83.15625 5.386719 "/>
<path style=" stroke:none;fill-rule:nonzero;fill:#afd1fc;fill-opacity:1;" d="M 110 72 C 110 82.039062 106.480469 93.039062 102.398438 100.121094 C 97.078125 109.359375 84.359375 110.761719 77 103.039062 C 76.320312 102.359375 75.519531 101.519531 74.679688 100.519531 C 69.039062 94.238281 59.160156 94.28125 53.601562 100.640625 C 52.800781 101.558594 52.074219 102.398438 51.441406 103.039062 C 44.035156 110.761719 31.320312 109.359375 26 100.121094 C 21.921875 93.039062 18.398438 82.039062 18.398438 72 C 18.398438 53.199219 26.328125 41.464844 39.46875 32.015625 C 40.730469 31.105469 42.5 32.007812 42.601562 33.5625 C 44.644531 64.933594 53.828125 77.808594 64.199219 78 C 74.574219 77.808594 83.765625 64.933594 85.804688 33.5625 C 85.898438 32.007812 87.667969 31.109375 88.933594 32.015625 C 102.070312 41.464844 110 53.199219 110 72 Z M 110 72 "/>
<path style=" stroke:none;fill-rule:nonzero;fill:#d3e6ff;fill-opacity:1;" d="M 75.3125 95.703125 C 73.09375 93.242188 71.84375 90.03125 71.851562 86.714844 C 71.859375 83.410156 72.207031 78.789062 73.570312 73.492188 C 79.597656 67.359375 84.207031 54.660156 85.578125 33.5625 C 85.636719 32.738281 86.164062 32.128906 86.828125 31.847656 C 98.488281 40.363281 105.53125 50.953125 105.53125 67.800781 C 105.53125 76.90625 102.335938 86.886719 98.636719 93.308594 C 93.808594 101.691406 82.269531 102.960938 75.550781 95.960938 C 75.492188 95.902344 75.410156 95.816406 75.3125 95.703125 Z M 75.3125 95.703125 "/>
<path style=" stroke:none;fill-rule:nonzero;fill:#d3e6ff;fill-opacity:1;" d="M 52.863281 95.703125 C 55.085938 93.242188 56.332031 90.03125 56.324219 86.714844 C 56.320312 83.410156 55.96875 78.789062 54.605469 73.492188 C 48.578125 67.359375 43.972656 54.660156 42.597656 33.5625 C 42.539062 32.738281 42.011719 32.128906 41.34375 31.847656 C 29.6875 40.363281 22.644531 50.953125 22.644531 67.800781 C 22.644531 76.90625 25.839844 86.886719 29.539062 93.308594 C 34.367188 101.691406 45.90625 102.960938 52.625 95.960938 C 52.683594 95.902344 52.761719 95.816406 52.863281 95.703125 Z M 52.863281 95.703125 "/>
<path style=" stroke:none;fill-rule:nonzero;fill:#f4f4f4;fill-opacity:1;" d="M 88.195312 73 C 77.507812 71.117188 95.449219 52 91.785156 42 C 99.199219 51 98.699219 74.847656 88.195312 73 Z M 88.195312 73 "/>
<path style=" stroke:none;fill-rule:nonzero;fill:#f4f4f4;fill-opacity:1;" d="M 39.753906 73 C 50.4375 71.117188 32.5 52 36.164062 42 C 28.753906 51 29.253906 74.847656 39.753906 73 Z M 39.753906 73 "/>
<path style=" stroke:none;fill-rule:nonzero;fill:#0165fc;fill-opacity:1;" d="M 64.007812 44 C 60.273438 44 56.398438 43.339844 52.492188 42.039062 C 46.410156 40.015625 41.902344 34.734375 40.726562 28.261719 L 37.453125 10.203125 C 37.136719 8.445312 37.605469 6.652344 38.742188 5.289062 C 40.425781 3.285156 43.285156 2.566406 45.695312 3.617188 C 50.335938 5.617188 57.277344 8 64 8 C 70.734375 8 77.691406 5.605469 82.34375 3.597656 C 84.746094 2.550781 87.601562 3.257812 89.285156 5.261719 C 90.425781 6.621094 90.898438 8.40625 90.589844 10.164062 L 87.40625 28.1875 C 86.246094 34.777344 81.675781 40.109375 75.488281 42.105469 C 71.578125 43.359375 67.714844 44 64.007812 44 Z M 43.335938 7.121094 C 42.765625 7.121094 42.199219 7.390625 41.816406 7.851562 C 41.59375 8.117188 41.238281 8.683594 41.390625 9.492188 L 44.664062 27.546875 C 45.578125 32.589844 49.0625 36.6875 53.757812 38.246094 C 60.730469 40.574219 67.210938 40.570312 74.261719 38.296875 C 79.035156 36.761719 82.5625 32.621094 83.472656 27.496094 L 86.652344 9.472656 C 86.792969 8.664062 86.441406 8.101562 86.21875 7.835938 C 85.660156 7.167969 84.742188 6.921875 83.933594 7.277344 C 78.933594 9.425781 71.414062 12 64 12 C 56.59375 12 49.097656 9.4375 44.113281 7.285156 C 43.859375 7.175781 43.597656 7.121094 43.335938 7.121094 Z M 43.335938 7.121094 "/>
<path style=" stroke:none;fill-rule:nonzero;fill:#0165fc;fill-opacity:1;" d="M 64 116 C 61.878906 116 59.789062 115.878906 57.785156 115.640625 C 56.6875 115.507812 55.902344 114.511719 56.035156 113.414062 C 56.167969 112.320312 57.191406 111.554688 58.261719 111.667969 C 64.824219 112.460938 72.347656 111.789062 77.46875 109.910156 C 78.5 109.527344 79.65625 110.0625 80.035156 111.101562 C 80.414062 112.136719 79.882812 113.289062 78.84375 113.667969 C 74.738281 115.167969 69.464844 116 64 116 Z M 64 116 "/>
<path style=" stroke:none;fill-rule:nonzero;fill:#0165fc;fill-opacity:1;" d="M 64 108 C 61.890625 108 59.804688 107.878906 57.800781 107.640625 C 56.707031 107.507812 55.921875 106.511719 56.050781 105.414062 C 56.183594 104.316406 57.214844 103.542969 58.277344 103.664062 C 61.898438 104.097656 65.890625 104.101562 69.535156 103.683594 C 72.324219 103.359375 74.953125 102.789062 77.136719 102.019531 C 78.183594 101.648438 79.324219 102.203125 79.6875 103.242188 C 80.054688 104.285156 79.503906 105.429688 78.464844 105.792969 C 76 106.65625 73.070312 107.300781 69.996094 107.65625 C 68.058594 107.886719 66.039062 108 64 108 Z M 64 108 "/>
<path style=" stroke:none;fill-rule:nonzero;fill:#0165fc;fill-opacity:1;" d="M 64 68 C 61.3125 68 58.570312 67.609375 55.839844 66.832031 C 54.777344 66.53125 54.160156 65.425781 54.460938 64.363281 C 54.761719 63.304688 55.855469 62.671875 56.933594 62.984375 C 59.304688 63.660156 61.683594 64 64 64 C 70.53125 64 76.085938 61.335938 79.597656 59.101562 C 80.515625 58.515625 81.765625 58.78125 82.355469 59.710938 C 82.949219 60.644531 82.675781 61.878906 81.742188 62.472656 C 77.789062 64.996094 71.496094 68 64 68 Z M 64 68 "/>
<path style=" stroke:none;fill-rule:nonzero;fill:#0165fc;fill-opacity:1;" d="M 64 58 C 54.246094 58 46.457031 52.835938 43.558594 50.617188 C 42.679688 49.945312 42.515625 48.6875 43.1875 47.8125 C 43.851562 46.9375 45.113281 46.773438 45.988281 47.441406 C 48.5625 49.410156 55.472656 54 64 54 C 73.277344 54 80.574219 48.601562 82.589844 46.949219 C 83.4375 46.253906 84.699219 46.371094 85.402344 47.222656 C 86.105469 48.074219 85.980469 49.339844 85.128906 50.039062 C 82.851562 51.90625 74.605469 58 64 58 Z M 64 58 "/>
<path style=" stroke:none;fill-rule:nonzero;fill:#0165fc;fill-opacity:1;" d="M 70.589844 124 L 57.308594 124 C 52.109375 124 47.726562 119.941406 47.335938 114.757812 L 46.632812 105.539062 C 46.546875 104.441406 47.375 103.476562 48.476562 103.390625 C 49.460938 103.285156 50.539062 104.128906 50.625 105.230469 L 51.328125 114.449219 C 51.5625 117.5625 54.191406 120 57.308594 120 L 70.589844 120 C 73.703125 120 76.332031 117.566406 76.570312 114.460938 L 77.3125 104.886719 C 77.394531 103.785156 78.449219 102.960938 79.457031 103.046875 C 80.554688 103.132812 81.378906 104.097656 81.296875 105.195312 L 80.554688 114.769531 C 80.164062 119.945312 75.78125 124 70.589844 124 Z M 70.589844 124 "/>
<path style=" stroke:none;fill-rule:nonzero;fill:#0165fc;fill-opacity:1;" d="M 64.042969 80.199219 C 60.292969 80.132812 56.507812 78.765625 53.847656 76.535156 C 52.914062 75.757812 52.792969 74.367188 53.570312 73.4375 C 54.351562 72.503906 55.738281 72.378906 56.667969 73.160156 C 58.554688 74.738281 61.378906 75.746094 64.039062 75.800781 C 66.199219 75.757812 69.570312 74.992188 71.671875 73.414062 C 72.648438 72.691406 74.019531 72.882812 74.757812 73.855469 C 75.484375 74.828125 75.289062 76.207031 74.316406 76.9375 C 71.210938 79.261719 66.84375 80.148438 64.042969 80.199219 Z M 64.042969 80.199219 "/>
<path style=" stroke:none;fill-rule:nonzero;fill:#0165fc;fill-opacity:1;" d="M 55.070312 100.753906 C 54.394531 100.753906 53.726562 100.441406 53.300781 99.851562 C 52.578125 98.871094 52.792969 97.496094 53.773438 96.777344 C 59.316406 92.710938 68.554688 92.550781 74.371094 96.433594 C 75.382812 97.105469 75.65625 98.472656 74.980469 99.484375 C 74.3125 100.488281 72.945312 100.765625 71.933594 100.09375 C 67.679688 97.257812 60.40625 97.359375 56.367188 100.324219 C 55.980469 100.613281 55.523438 100.753906 55.070312 100.753906 Z M 55.070312 100.753906 "/>
<path style=" stroke:none;fill-rule:nonzero;fill:#0165fc;fill-opacity:1;" d="M 88.515625 110.023438 C 88.09375 110.023438 87.660156 110.007812 87.230469 109.972656 C 82.605469 109.609375 74.019531 106.878906 68.589844 92.714844 C 68.191406 91.683594 68.707031 90.527344 69.738281 90.132812 C 70.765625 89.738281 71.929688 90.253906 72.324219 91.285156 C 75.769531 100.265625 81.175781 105.484375 87.550781 105.988281 C 93.53125 106.449219 98.621094 102.765625 100.722656 99.125 C 104.105469 93.277344 108.046875 82.660156 108.046875 72 C 108.046875 55.589844 101.855469 43.792969 87.972656 33.757812 C 87.421875 55.03125 80.03125 67.652344 75.617188 75.191406 C 73.894531 78.125 72.414062 80.65625 72.414062 81.996094 C 72.414062 83.101562 71.519531 83.996094 70.414062 83.996094 C 69.3125 83.996094 68.414062 83.101562 68.414062 81.996094 C 68.414062 79.566406 69.988281 76.882812 72.164062 73.167969 C 76.660156 65.492188 83.449219 53.890625 84.011719 33.707031 C 84.058594 32.195312 84.929688 30.839844 86.277344 30.175781 C 87.574219 29.53125 89.132812 29.660156 90.316406 30.511719 C 105.34375 41.375 112.046875 54.171875 112.046875 71.996094 C 112.046875 81.421875 108.964844 92.851562 104.183594 101.121094 C 101.085938 106.492188 94.777344 110.023438 88.515625 110.023438 Z M 88.515625 110.023438 "/>
<path style=" stroke:none;fill-rule:nonzero;fill:#0165fc;fill-opacity:1;" d="M 39.9375 110.023438 C 33.675781 110.023438 27.367188 106.492188 24.273438 101.125 C 19.5 92.851562 16.414062 81.421875 16.414062 72 C 16.414062 54.171875 23.121094 41.378906 38.148438 30.515625 C 39.328125 29.664062 40.878906 29.535156 42.1875 30.179688 C 43.542969 30.847656 44.40625 32.203125 44.449219 33.714844 C 45.011719 53.894531 51.804688 65.496094 56.300781 73.171875 C 58.476562 76.886719 60.046875 79.570312 60.046875 82 C 60.046875 83.105469 59.152344 84 58.046875 84 C 56.945312 84 56.046875 83.105469 56.046875 82 C 56.046875 80.660156 54.566406 78.128906 52.847656 75.195312 C 48.433594 67.65625 41.039062 55.035156 40.449219 33.824219 C 26.605469 43.792969 20.414062 55.589844 20.414062 72 C 20.414062 82.65625 24.359375 93.273438 27.734375 99.125 C 29.839844 102.765625 34.785156 106.476562 40.910156 105.984375 C 47.289062 105.484375 52.691406 100.261719 56.136719 91.285156 C 56.535156 90.257812 57.699219 89.742188 58.71875 90.132812 C 59.753906 90.527344 60.269531 91.683594 59.871094 92.714844 C 54.445312 106.878906 45.859375 109.609375 41.226562 109.972656 C 40.796875 110.003906 40.367188 110.023438 39.9375 110.023438 Z M 39.9375 110.023438 "/>
</g>
</svg>