<!DOCTYPE svg PUBLIC "-//W3C//DTD SVG 1.1//EN" "http://www.w3.org/Graphics/SVG/1.1/DTD/svg11.dtd">
<!-- Uploaded to: SVG Repo, www.svgrepo.com, Transformed by: SVG Repo Mixer Tools -->
<svg version="1.1" id="Icons" xmlns="http://www.w3.org/2000/svg" xmlns:xlink="http://www.w3.org/1999/xlink" viewBox="0 0 32 32" xml:space="preserve" width="128px" height="128px" fill="#000000">
<g id="SVGRepo_bgCarrier" stroke-width="0"/>
<g id="SVGRepo_tracerCarrier" stroke-linecap="round" stroke-linejoin="round"/>
<g id="SVGRepo_iconCarrier"> <style type="text/css"> .st0{fill:none;stroke:#0165fc;stroke-width:2;stroke-linecap:round;stroke-linejoin:round;stroke-miterlimit:10;} </style> <path class="st0" d="M16,2v0.8c0,2.7,0.9,5.3,2.6,7.4l0,0v0c-0.5,2.6-1.9,4.9-4.1,6.4l-0.2,0.1h0c-1.5,0.8-3.2,1.1-5,0.9l-1.2-0.1 c-1.4-0.3-2.8,0.1-3.8,1.1l0,0l0,0C3.5,19.5,3,20.7,3,21.9V29"/> <path class="st0" d="M20,2v0.4C20,7,22,9,22,9h0.9c3.4,0,6.1,2.7,6.1,6.1v0v0c0,1.9-0.5,3.8-1.4,5.5l0,0c-2.2,3.9-6.6,6.4-11.9,5.8 l0,0c-2.4-0.2-4.7-1.1-6.5-2.6l0,0C8.3,23,7,23.6,7,24.7V29"/> </g>
</svg>