<!DOCTYPE svg PUBLIC "-//W3C//DTD SVG 1.1//EN" "http://www.w3.org/Graphics/SVG/1.1/DTD/svg11.dtd">
<!-- Uploaded to: SVG Repo, www.svgrepo.com, Transformed by: SVG Repo Mixer Tools -->
<svg height="128px" width="128px" version="1.1" id="Layer_1" xmlns="http://www.w3.org/2000/svg" xmlns:xlink="http://www.w3.org/1999/xlink" viewBox="0 0 512 512" xml:space="preserve" fill="#000000">
<g id="SVGRepo_bgCarrier" stroke-width="0"/>
<g id="SVGRepo_tracerCarrier" stroke-linecap="round" stroke-linejoin="round"/>
<g id="SVGRepo_iconCarrier"> <g> <path style="fill:#d3e6ff;" d="M391.313,371.2c-34.56,0-59.793-19.473-67.49-52.096c-7.526-31.855,4.574-66.714,28.006-84.736 c-10.172-6.801-20.855-19.106-20.855-42.368c0-23.757,9.677-36.659,18.944-43.904c-22.17-18.415-33.408-52.224-26.095-83.2 c7.706-32.623,32.939-52.096,67.49-52.096C465.835,12.8,499.2,102.801,499.2,192S465.843,371.2,391.313,371.2z"/> <path style="fill:#d3e6ff;" d="M120.687,371.2C46.157,371.2,12.8,281.199,12.8,192S46.157,12.8,120.687,12.8 c34.56,0,59.793,19.473,67.49,52.096c7.313,30.976-3.925,64.794-26.095,83.2c9.267,7.245,18.944,20.139,18.944,43.904 c0,23.262-10.684,35.567-20.855,42.368c23.433,18.014,35.533,52.873,28.006,84.736C180.471,351.727,155.238,371.2,120.687,371.2z"/> </g> <g> <path style="fill:#0165fc;" d="M192.981,180.762c-1.783-14.251-6.673-24.883-12.698-32.555 c19.209-22.212,27.716-55.04,20.352-86.246C191.607,23.74,160.981,0,120.687,0C37.316,0,0,96.435,0,192s37.316,192,120.687,192 c40.294,0,70.929-23.74,79.949-61.961c7.518-31.829-1.485-65.34-21.504-87.552c6.716-7.578,10.965-16.759,13.082-27.298 c3.635,1.408,6.135,3.217,7.74,4.838c20.028,20.198,19.302,89.353,18.253,194.048c-0.273,27.998-0.597,58.974-0.597,93.124 c0,7.074,5.726,12.8,12.8,12.8s12.8-5.726,12.8-12.8c0-34.048,0.324-64.947,0.597-92.877 c1.246-122.846,1.877-184.525-25.651-212.326C211.388,187.17,202.914,182.818,192.981,180.762z M168.226,192 c0,47.539-53.837,32.512-23.774,47.539C192,263.313,192,358.4,120.687,358.4S25.6,263.313,25.6,192S49.374,25.6,120.687,25.6 S192,120.687,144.461,144.461C123.196,155.085,168.226,144.461,168.226,192z"/> <path style="fill:#0165fc;" d="M391.313,0c-40.294,0-70.929,23.74-79.949,61.961c-7.364,31.206,1.143,64.034,20.352,86.246 c-6.025,7.671-10.914,18.304-12.698,32.555c-9.933,2.057-18.406,6.409-25.165,13.235c-27.529,27.802-26.897,89.472-25.651,212.326 c0.273,27.921,0.597,58.829,0.597,92.877c0,7.074,5.726,12.8,12.8,12.8s12.8-5.726,12.8-12.8c0-34.15-0.324-65.126-0.597-93.124 c-1.05-104.704-1.775-173.85,18.253-194.048c1.604-1.63,4.105-3.43,7.74-4.838c2.116,10.539,6.366,19.721,13.082,27.298 c-20.019,22.212-29.013,55.723-21.504,87.552c9.02,38.221,39.646,61.961,79.94,61.961C474.684,384,512,287.565,512,192 S474.684,0,391.313,0z M391.313,358.4C320,358.4,320,263.313,367.539,239.539c30.071-15.036-23.774,0-23.774-47.539 s45.03-36.915,23.774-47.539C320,120.687,320,25.6,391.313,25.6S486.4,120.687,486.4,192S462.626,358.4,391.313,358.4z"/> </g> </g>
</svg>