<!DOCTYPE svg PUBLIC "-//W3C//DTD SVG 1.1//EN" "http://www.w3.org/Graphics/SVG/1.1/DTD/svg11.dtd">
<!-- Uploaded to: SVG Repo, www.svgrepo.com, Transformed by: SVG Repo Mixer Tools -->
<svg fill="#0165fc" height="128px" width="128px" version="1.1" id="Layer_1" xmlns="http://www.w3.org/2000/svg" xmlns:xlink="http://www.w3.org/1999/xlink" viewBox="0 0 496 496" xml:space="preserve">
<g id="SVGRepo_bgCarrier" stroke-width="0"/>
<g id="SVGRepo_tracerCarrier" stroke-linecap="round" stroke-linejoin="round"/>
<g id="SVGRepo_iconCarrier"> <g> <g> <g> <path d="M474.928,88c-9.616,0-18.664,3.744-25.464,10.544l-15.592,15.592c-3.728,3.728-8.88,5.864-14.144,5.864h-8.4 c-11.032,0-20-8.968-20-20s8.968-20,20-20h4h8V0h-16v54.112l-11.184-22.36C386.352,12.16,366.672,0,344.776,0 c-31.672,0-57.448,25.776-57.448,57.448v32.576c0,2.44,0.152,4.976,0.232,7.464L267.168,72h-43.84v117.576l-11.064,16.6 l-16.016-9.152L176.944,232h-17.616l-68.52,16.88l-74.136,90.68l-16,24l13.312,8.872l15.536-23.376l70.32-85.944L160.312,248 h19.016c11.032,0,20,8.968,20,20c0,11.032-8.968,20-20,20h-14.96l-34.744,29.784L60.592,442.888l42.736,25.648 c0,0.016,0,0.032,0,0.056c0,15.112,12.296,27.408,27.416,27.408c9.688,0,19.192-2.632,27.496-7.616l19.784-11.864 c8.2-4.928,13.304-13.936,13.304-23.512v-1.592c0-7.656-3.168-14.568-8.24-19.544l18.928-11.352 c8.208-4.928,13.312-13.936,13.312-23.512v-1.592c0-7.656-3.168-14.568-8.24-19.544l18.928-11.352 c8.208-4.928,13.312-13.936,13.312-23.512v-1.592c0-10.832-6.368-20.128-15.512-24.584l42.272-77.896l-15.192-8.68l19.008-31.688 l27.752-34.688c3.4,11.984,7.384,23.688,12.272,34.688c6.24,14.024,9.4,28.912,9.4,44.256v38.824 c0,31.072,25.28,56.352,56.36,56.352c19.728,0,37.528-10.344,47.64-26.296V496h16V280h-22.544l-1.52,7.552 c-3.776,18.8-20.416,32.448-39.576,32.448c-22.256,0-40.36-18.104-40.36-40.36v-38.824c0-17.584-3.624-34.656-10.768-50.752 c-4.248-9.544-7.728-19.696-10.784-30.072h45.552v-48h-54.856c-0.688-7.48-1.144-14.88-1.144-21.968V57.448 C303.328,34.592,321.92,16,344.776,16c15.8,0,30,8.776,37.064,22.904l14.288,28.584c-12.248,5.752-20.8,18.112-20.8,32.512 c0,19.848,16.152,36,36,36h8.4c9.616,0,18.664-3.744,25.464-10.544l15.592-15.592c3.72-3.728,8.88-5.864,14.144-5.864h20.4V88 H474.928z M175.328,453.008c0,3.984-2.128,7.736-5.544,9.792L150,474.664c-5.816,3.496-12.472,5.336-19.256,5.336 c-6.296,0-11.416-5.12-11.416-12c0-4.352,2.424-8.264,6.312-10.208l33.152-16.584c1.584-0.792,3.352-1.2,5.12-1.2 c6.296-0.008,11.416,5.112,11.416,11.408V453.008z M199.328,397.008c0,3.984-2.128,7.736-5.544,9.792L174,418.664 c-5.816,3.496-12.472,5.336-19.256,5.336c-6.296,0-11.416-5.12-11.416-12c0-4.352,2.424-8.264,6.312-10.208l33.152-16.584 c1.584-0.792,3.352-1.2,5.12-1.2c6.296-0.008,11.416,5.112,11.416,11.408V397.008z M223.328,341.008 c0,3.984-2.128,7.736-5.544,9.792L198,362.664c-5.816,3.496-12.472,5.336-19.256,5.336c-6.296,0-11.416-5.12-11.416-12 c0-4.352,2.424-8.264,6.312-10.208l33.152-16.584c1.584-0.792,3.352-1.2,5.12-1.2c6.296-0.008,11.416,5.112,11.416,11.408 V341.008z M206.832,312.592c-2.48,0.472-4.92,1.168-7.184,2.296l-33.168,16.584c-9.344,4.68-15.152,14.072-15.152,25.112 c0,8.64,4.096,16.264,10.352,21.288l-19.2,9.6c-9.344,4.68-15.152,14.072-15.152,25.112c0,8.64,4.096,16.264,10.352,21.288 l-19.2,9.6c-4.32,2.16-7.84,5.368-10.416,9.24l-26-15.6l60.168-109.064L170.288,304h9.04c19.848,0,36-16.152,36-36 c0-3.232-0.568-6.304-1.368-9.28l16.872,9.64L206.832,312.592z M238.464,254.296l-42.232-24.136l6.168-11.184l42.16,24.088 L238.464,254.296z M237.008,220.312l-10.824-6.176L235.608,200H249.2L237.008,220.312z M255.328,184h-16V88h16V184z M319.328,128 h24v16h-24V128z M303.328,144H291.48l-20.152,25.192V102.8L291.48,128h11.848V144z"/> <path d="M395.36,210.616l-3.616,10.848l15.168,5.064l3.616-10.848c6.32-18.944,23.984-31.68,43.952-31.68h40.848v-16H454.48 C427.616,168,403.856,185.128,395.36,210.616z"/> <path d="M372.168,44.848C366.808,36.8,357.832,32,348.168,32c-15.904,0-28.84,12.936-28.84,28.848V88h16V60.848 c0-7.088,5.76-12.848,12.84-12.848c4.304,0,8.296,2.144,10.688,5.72l9.816,14.72l13.312-8.872L372.168,44.848z"/> <path d="M375.328,264v-24c0-11.696-2.768-23.416-8-33.888l-1.688-3.376c-4.136-8.264-6.312-17.512-6.312-26.736h-16 c0,11.696,2.768,23.416,8,33.888l1.688,3.376c4.128,8.264,6.312,17.512,6.312,26.736v24H375.328z"/> </g> </g> </g> </g>
</svg>