<!DOCTYPE svg PUBLIC "-//W3C//DTD SVG 1.1//EN" "http://www.w3.org/Graphics/SVG/1.1/DTD/svg11.dtd">
<!-- Uploaded to: SVG Repo, www.svgrepo.com, Transformed by: SVG Repo Mixer Tools -->
<svg height="128px" width="128px" version="1.1" id="Layer_1" xmlns="http://www.w3.org/2000/svg" xmlns:xlink="http://www.w3.org/1999/xlink" viewBox="0 0 512.014 512.014" xml:space="preserve" fill="#000000">
<g id="SVGRepo_bgCarrier" stroke-width="0"/>
<g id="SVGRepo_tracerCarrier" stroke-linecap="round" stroke-linejoin="round"/>
<g id="SVGRepo_iconCarrier"> <polygon style="fill:#d3e6ff;" points="0.007,496.92 138.306,358.605 153.4,373.699 15.085,512.014 "/> <polygon style="fill:#E6E9ED;" points="184.572,402.857 116.696,395.309 109.149,327.433 350.496,86.085 425.919,161.508 "/> <polygon style="fill:#d3e6ff;" points="109.149,327.433 116.696,395.309 184.572,402.857 354.059,233.361 203.213,233.361 "/> <polygon style="fill:#0165fc;" points="501.343,55.913 456.092,10.662 350.496,116.25 395.747,161.508 "/> <g> <path style="fill:#424b58;" d="M293.73,203.196c4.156,4.164,10.923,4.164,15.079,0c4.172-4.164,4.172-10.922,0-15.086 l-30.173-30.172l-15.078,15.086L293.73,203.196z"/> <path style="fill:#424b58;" d="M248.48,248.447c4.156,4.164,10.906,4.164,15.078,0s4.172-10.922,0-15.086l-30.172-30.165 l-15.079,15.079L248.48,248.447z"/> <path style="fill:#424b58;" d="M203.229,293.698c4.156,4.156,10.906,4.156,15.078,0c4.156-4.156,4.156-10.906,0-15.078 l-30.172-30.173l-15.079,15.094L203.229,293.698z"/> </g> <g> <path style="fill:#E6E9ED;" d="M508.89,63.46L448.545,3.123c-4.156-4.164-10.922-4.164-15.078,0 c-4.173,4.164-4.173,10.914,0,15.078l60.328,60.337c4.173,4.172,10.923,4.172,15.095,0C513.046,74.374,513.046,67.624,508.89,63.46 z"/> <path style="fill:#E6E9ED;" d="M425.919,161.508l-75.423-75.423c-4.156-4.164-10.922-4.164-15.078,0 c-4.172,4.165-4.172,10.915,0,15.086l75.423,75.416c2.078,2.086,4.812,3.125,7.531,3.125c2.734,0,5.469-1.039,7.547-3.125 C430.091,172.423,430.091,165.673,425.919,161.508z"/> </g> </g>
</svg>