<svg xmlns="http://www.w3.org/2000/svg" xmlns:xlink="http://www.w3.org/1999/xlink" width="128px" height="128px" viewBox="0 0 128 128" version="1.1">
<g id="surface1">
<path style=" stroke:none;fill-rule:nonzero;fill:#0165fc;fill-opacity:1;" d="M 126.945312 42.667969 L 126.945312 119.464844 C 126.945312 123 124.078125 125.867188 120.542969 125.867188 C 117.007812 125.867188 114.144531 123 114.144531 119.464844 L 114.144531 46.933594 L 117.363281 45.847656 L 117.386719 45.847656 L 125.535156 43.136719 Z M 126.945312 42.667969 "/>
<path style=" stroke:none;fill-rule:nonzero;fill:#d3e6ff;fill-opacity:1;" d="M 126.945312 2.132812 L 126.945312 38.398438 C 126.9375 39.390625 126.734375 40.371094 126.347656 41.28125 L 125.535156 43.136719 L 117.386719 45.847656 L 117.363281 45.847656 C 116.105469 44.457031 114.144531 42.070312 114.144531 40.535156 C 114.144531 12.800781 126.945312 2.132812 126.945312 2.132812 Z M 126.945312 2.132812 "/>
<path style=" stroke:none;fill-rule:nonzero;fill:#d3e6ff;fill-opacity:1;" d="M 30.332031 34.132812 L 33.078125 34.132812 C 34.253906 34.132812 35.210938 33.179688 35.210938 32 C 35.210938 30.820312 34.253906 29.867188 33.078125 29.867188 L 29.605469 29.867188 L 26.664062 12.539062 C 26.535156 6.339844 21.984375 1.125 15.859375 0.160156 C 9.738281 -0.808594 3.800781 2.753906 1.773438 8.613281 C -0.257812 14.472656 2.203125 20.941406 7.613281 23.96875 C 13.023438 27 19.824219 25.714844 23.757812 20.925781 L 41.640625 126.222656 C 41.8125 127.25 42.703125 128 43.742188 128 C 43.863281 128 43.984375 127.988281 44.101562 127.96875 C 45.261719 127.773438 46.046875 126.671875 45.847656 125.511719 Z M 13.878906 21.332031 C 9.164062 21.332031 5.34375 17.511719 5.34375 12.800781 C 5.34375 8.085938 9.164062 4.265625 13.878906 4.265625 C 18.589844 4.265625 22.410156 8.085938 22.410156 12.800781 C 22.410156 17.511719 18.589844 21.332031 13.878906 21.332031 Z M 13.878906 21.332031 "/>
<path style=" stroke:none;fill-rule:nonzero;fill:#0165fc;fill-opacity:1;" d="M 60.808594 0 C 53.859375 0.0078125 48.183594 5.558594 48.023438 12.503906 L 44.421875 29.867188 L 41.609375 29.867188 C 40.433594 29.867188 39.476562 30.820312 39.476562 32 C 39.476562 33.179688 40.433594 34.132812 41.609375 34.132812 L 43.53125 34.132812 L 24.589844 125.4375 C 24.347656 126.59375 25.089844 127.722656 26.242188 127.960938 C 26.386719 127.988281 26.53125 128 26.675781 128 C 27.691406 127.996094 28.558594 127.285156 28.761719 126.292969 L 50.699219 20.621094 C 54.367188 25.371094 60.839844 26.9375 66.273438 24.386719 C 71.703125 21.839844 74.636719 15.859375 73.324219 10.003906 C 72.011719 4.148438 66.808594 -0.0117188 60.808594 0 Z M 60.808594 21.332031 C 56.097656 21.332031 52.277344 17.511719 52.277344 12.800781 C 52.277344 8.085938 56.097656 4.265625 60.808594 4.265625 C 65.523438 4.265625 69.34375 8.085938 69.34375 12.800781 C 69.34375 17.511719 65.523438 21.332031 60.808594 21.332031 Z M 60.808594 21.332031 "/>
<path style=" stroke:none;fill-rule:nonzero;fill:#0165fc;fill-opacity:1;" d="M 99.210938 128 C 98.433594 128 97.722656 127.582031 97.34375 126.902344 C 96.96875 126.226562 96.988281 125.398438 97.398438 124.742188 C 97.535156 124.527344 110.835938 102.652344 97.542969 86.699219 C 91.917969 79.941406 90.703125 74.113281 90.675781 70.414062 C 90.667969 69.238281 91.617188 68.273438 92.792969 68.265625 L 92.808594 68.265625 C 93.980469 68.265625 94.933594 69.210938 94.945312 70.386719 C 95.289062 75.453125 97.363281 80.246094 100.820312 83.96875 C 107.175781 91.597656 109.210938 101.492188 106.699219 112.582031 C 105.550781 117.648438 103.636719 122.507812 101.019531 126.996094 C 100.632812 127.621094 99.945312 128 99.210938 128 Z M 99.210938 128 "/>
<path style=" stroke:none;fill-rule:nonzero;fill:#0165fc;fill-opacity:1;" d="M 77.878906 128 C 77.140625 128 76.457031 127.621094 76.066406 126.996094 C 73.445312 122.507812 71.527344 117.648438 70.371094 112.585938 C 67.855469 101.492188 69.882812 91.597656 76.238281 83.96875 C 79.695312 80.246094 81.769531 75.453125 82.113281 70.386719 C 82.121094 69.210938 83.074219 68.265625 84.246094 68.265625 L 84.261719 68.265625 C 85.441406 68.273438 86.386719 69.238281 86.378906 70.414062 C 86.355469 74.117188 85.140625 79.945312 79.519531 86.699219 C 66.230469 102.652344 79.550781 124.519531 79.6875 124.742188 C 80.097656 125.398438 80.117188 126.226562 79.742188 126.902344 C 79.363281 127.578125 78.652344 128 77.878906 128 Z M 77.878906 128 "/>
<path style=" stroke:none;fill-rule:nonzero;fill:#d3e6ff;fill-opacity:1;" d="M 92.808594 57.601562 L 84.277344 57.601562 C 83.675781 57.601562 83.097656 57.34375 82.695312 56.898438 C 82.289062 56.449219 82.09375 55.851562 82.152344 55.253906 L 86.421875 12.585938 C 86.5 11.46875 87.429688 10.605469 88.550781 10.605469 C 89.667969 10.605469 90.597656 11.46875 90.675781 12.585938 L 94.945312 55.253906 C 95.003906 55.855469 94.804688 56.453125 94.398438 56.902344 C 93.992188 57.347656 93.414062 57.601562 92.808594 57.601562 Z M 92.808594 57.601562 "/>
<path style=" stroke:none;fill-rule:nonzero;fill:#0165fc;fill-opacity:1;" d="M 84.277344 53.332031 L 92.808594 53.332031 C 93.988281 53.332031 94.945312 54.289062 94.945312 55.464844 L 94.945312 72.535156 C 94.945312 73.710938 93.988281 74.667969 92.808594 74.667969 L 84.277344 74.667969 C 83.097656 74.667969 82.144531 73.710938 82.144531 72.535156 L 82.144531 55.464844 C 82.144531 54.289062 83.097656 53.332031 84.277344 53.332031 Z M 84.277344 53.332031 "/>
<path style=" stroke:none;fill-rule:nonzero;fill:#d3e6ff;fill-opacity:1;" d="M 60.808594 128 C 60.246094 128 59.703125 127.773438 59.300781 127.375 L 55.035156 123.109375 C 54.636719 122.707031 54.410156 122.164062 54.410156 121.601562 L 54.410156 108.800781 C 54.410156 107.621094 55.367188 106.667969 56.542969 106.667969 C 57.722656 106.667969 58.675781 107.621094 58.675781 108.800781 L 58.675781 120.714844 L 62.320312 124.359375 C 62.929688 124.96875 63.109375 125.886719 62.78125 126.683594 C 62.449219 127.480469 61.671875 128 60.808594 128 Z M 60.808594 128 "/>
<path style=" stroke:none;fill-rule:nonzero;fill:#d3e6ff;fill-opacity:1;" d="M 56.542969 64 C 55.367188 64 54.410156 63.042969 54.410156 61.867188 L 54.410156 49.066406 C 54.410156 48.5 54.636719 47.957031 55.035156 47.558594 L 59.925781 42.667969 L 55.035156 37.773438 C 54.226562 36.9375 54.238281 35.605469 55.0625 34.785156 C 55.882812 33.960938 57.214844 33.949219 58.050781 34.757812 L 64.453125 41.160156 C 65.285156 41.992188 65.285156 43.339844 64.453125 44.175781 L 58.675781 49.949219 L 58.675781 61.867188 C 58.675781 63.042969 57.722656 64 56.542969 64 Z M 56.542969 64 "/>
<path style=" stroke:none;fill-rule:nonzero;fill:#0165fc;fill-opacity:1;" d="M 60.808594 108.800781 L 52.277344 108.800781 L 52.277344 61.867188 L 60.808594 61.867188 Z M 60.808594 108.800781 "/>
</g>
</svg>