<svg xmlns="http://www.w3.org/2000/svg" xmlns:xlink="http://www.w3.org/1999/xlink" width="128px" height="128px" viewBox="0 0 128 128" version="1.1">
<g id="surface1">
<path style=" stroke:none;fill-rule:nonzero;fill:#d3e6ff;fill-opacity:1;" d="M 91.9375 79.230469 L 12.492188 79.230469 C 6.972656 79.230469 2.5 74.753906 2.5 69.234375 L 2.5 12.523438 C 2.5 7.003906 6.972656 2.53125 12.492188 2.53125 L 91.9375 2.53125 C 97.457031 2.53125 101.929688 7.003906 101.929688 12.523438 L 101.929688 69.234375 C 101.929688 74.753906 97.457031 79.230469 91.9375 79.230469 Z M 91.9375 79.230469 "/>
<path style=" stroke:none;fill-rule:nonzero;fill:#d3e6ff;fill-opacity:1;" d="M 42.222656 79.230469 L 62.207031 79.230469 L 62.207031 91.222656 L 42.222656 91.222656 Z M 42.222656 79.230469 "/>
<path style=" stroke:none;fill-rule:nonzero;fill:#d3e6ff;fill-opacity:1;" d="M 67.859375 91.222656 L 36.570312 91.222656 C 33.328125 91.222656 30.699219 93.851562 30.699219 97.09375 C 30.699219 100.335938 33.328125 102.964844 36.570312 102.964844 L 67.859375 102.964844 C 71.101562 102.964844 73.730469 100.335938 73.730469 97.09375 C 73.730469 93.851562 71.101562 91.222656 67.859375 91.222656 Z M 67.859375 91.222656 "/>
<path style=" stroke:none;fill-rule:nonzero;fill:#c4cdd9;fill-opacity:1;" d="M 13.492188 68.238281 L 90.9375 68.238281 L 90.9375 13.523438 L 13.492188 13.523438 Z M 13.492188 68.238281 "/>
<path style=" stroke:none;fill-rule:nonzero;fill:rgb(100%,100%,100%);fill-opacity:1;" d="M 61.167969 25.308594 C 55.605469 28.351562 48.824219 28.351562 43.261719 25.308594 L 26.726562 46.320312 C 40.804688 60.394531 63.625 60.394531 77.703125 46.320312 Z M 61.167969 25.308594 "/>
<path style=" stroke:none;fill-rule:nonzero;fill:rgb(100%,100%,100%);fill-opacity:1;" d="M 96.859375 123.121094 L 73.5 123.121094 C 69.777344 123.121094 66.753906 120.101562 66.753906 116.375 C 66.753906 112.648438 69.777344 109.628906 73.5 109.628906 L 96.859375 109.628906 C 100.585938 109.628906 103.605469 112.648438 103.605469 116.375 C 103.605469 120.101562 100.585938 123.121094 96.859375 123.121094 Z M 96.859375 123.121094 "/>
<path style=" stroke:none;fill-rule:nonzero;fill:rgb(100%,100%,100%);fill-opacity:1;" d="M 104.488281 107.300781 L 97.269531 107.300781 C 94.699219 107.300781 92.613281 109.386719 92.613281 111.957031 L 92.613281 120.789062 C 92.613281 123.363281 94.699219 125.449219 97.269531 125.449219 L 104.488281 125.449219 Z M 104.488281 107.300781 "/>
<path style=" stroke:none;fill-rule:nonzero;fill:#0165fc;fill-opacity:1;" d="M 93.4375 68.238281 L 93.4375 13.523438 C 93.4375 12.144531 92.316406 11.027344 90.9375 11.027344 L 63.457031 11.027344 C 62.078125 11.027344 60.957031 12.144531 60.957031 13.523438 C 60.957031 14.902344 62.078125 16.023438 63.457031 16.023438 L 88.441406 16.023438 L 88.441406 65.738281 L 15.988281 65.738281 L 15.988281 16.023438 L 40.972656 16.023438 C 42.351562 16.023438 43.46875 14.902344 43.46875 13.523438 C 43.46875 12.144531 42.351562 11.027344 40.972656 11.027344 L 13.492188 11.027344 C 12.109375 11.027344 10.992188 12.144531 10.992188 13.523438 L 10.992188 68.238281 C 10.992188 69.617188 12.109375 70.734375 13.492188 70.734375 L 90.9375 70.734375 C 92.316406 70.734375 93.4375 69.617188 93.4375 68.238281 Z M 93.4375 68.238281 "/>
<path style=" stroke:none;fill-rule:nonzero;fill:#0165fc;fill-opacity:1;" d="M 41.296875 23.765625 L 24.765625 44.773438 C 23.980469 45.769531 24.066406 47.191406 24.960938 48.085938 C 32.476562 55.597656 42.34375 59.355469 52.214844 59.355469 C 62.085938 59.355469 71.953125 55.597656 79.46875 48.085938 C 80.363281 47.191406 80.445312 45.769531 79.664062 44.773438 L 63.132812 23.765625 C 62.375 22.804688 61.039062 22.53125 59.96875 23.117188 C 55.1875 25.734375 49.242188 25.734375 44.460938 23.117188 C 43.390625 22.53125 42.054688 22.804688 41.296875 23.765625 Z M 60.441406 28.425781 L 74.320312 46.066406 C 68.203125 51.441406 60.433594 54.378906 52.214844 54.378906 C 43.996094 54.378906 36.226562 51.441406 30.105469 46.066406 L 43.988281 28.425781 C 49.210938 30.617188 55.214844 30.617188 60.441406 28.425781 Z M 60.441406 28.425781 "/>
<path style=" stroke:none;fill-rule:nonzero;fill:#0165fc;fill-opacity:1;" d="M 104.488281 104.800781 L 97.269531 104.800781 C 95.183594 104.800781 93.300781 105.699219 91.992188 107.132812 L 73.5 107.132812 C 69.269531 107.132812 65.695312 109.988281 64.601562 113.875 L 12.960938 113.875 C 10.640625 113.875 8.753906 111.988281 8.753906 109.667969 C 8.753906 107.347656 10.640625 105.460938 12.960938 105.460938 L 67.859375 105.460938 C 72.472656 105.460938 76.226562 101.707031 76.226562 97.09375 C 76.226562 92.476562 72.472656 88.722656 67.859375 88.722656 L 64.707031 88.722656 L 64.707031 81.726562 L 91.9375 81.726562 C 98.824219 81.726562 104.429688 76.125 104.429688 69.234375 L 104.429688 12.523438 C 104.429688 5.636719 98.824219 0.0351562 91.9375 0.0351562 L 12.492188 0.0351562 C 5.605469 0.0351562 0 5.636719 0 12.523438 L 0 69.234375 C 0 76.125 5.605469 81.726562 12.492188 81.726562 L 39.722656 81.726562 L 39.722656 88.722656 L 36.570312 88.722656 C 31.957031 88.722656 28.199219 92.476562 28.199219 97.09375 C 28.199219 98.292969 28.457031 99.433594 28.914062 100.464844 L 12.960938 100.464844 C 7.886719 100.464844 3.757812 104.59375 3.757812 109.667969 C 3.757812 114.742188 7.886719 118.871094 12.960938 118.871094 L 64.601562 118.871094 C 65.695312 122.757812 69.269531 125.617188 73.5 125.617188 L 91.992188 125.617188 C 93.304688 127.046875 95.183594 127.945312 97.269531 127.945312 L 104.488281 127.945312 C 105.867188 127.945312 106.988281 126.828125 106.988281 125.449219 L 106.988281 107.300781 C 106.984375 105.921875 105.867188 104.800781 104.488281 104.800781 Z M 4.996094 69.234375 L 4.996094 12.523438 C 4.996094 8.390625 8.359375 5.03125 12.492188 5.03125 L 91.9375 5.03125 C 96.070312 5.03125 99.433594 8.390625 99.433594 12.523438 L 99.433594 69.234375 C 99.433594 73.367188 96.070312 76.730469 91.9375 76.730469 L 12.492188 76.730469 C 8.359375 76.730469 4.996094 73.367188 4.996094 69.234375 Z M 44.71875 81.726562 L 59.710938 81.726562 L 59.710938 88.722656 L 44.71875 88.722656 Z M 33.199219 97.09375 C 33.199219 95.234375 34.710938 93.71875 36.570312 93.71875 L 67.859375 93.71875 C 69.71875 93.71875 71.230469 95.234375 71.230469 97.09375 C 71.230469 98.953125 69.71875 100.464844 67.859375 100.464844 L 36.570312 100.464844 C 34.710938 100.464844 33.199219 98.953125 33.199219 97.09375 Z M 69.253906 116.375 C 69.253906 114.03125 71.160156 112.128906 73.5 112.128906 L 90.113281 112.128906 L 90.113281 120.621094 L 73.5 120.621094 C 71.160156 120.621094 69.253906 118.714844 69.253906 116.375 Z M 101.988281 122.949219 L 97.269531 122.949219 C 96.078125 122.949219 95.109375 121.980469 95.109375 120.789062 L 95.109375 111.957031 C 95.109375 110.769531 96.078125 109.800781 97.269531 109.800781 L 101.988281 109.800781 Z M 101.988281 122.949219 "/>
<path style=" stroke:none;fill-rule:nonzero;fill:#0165fc;fill-opacity:1;" d="M 111.898438 110.214844 C 110.921875 111.1875 110.921875 112.769531 111.898438 113.746094 C 112.59375 114.445312 112.980469 115.371094 112.980469 116.355469 C 112.980469 117.34375 112.59375 118.269531 111.898438 118.964844 C 110.921875 119.941406 110.921875 121.523438 111.898438 122.5 C 112.386719 122.988281 113.027344 123.230469 113.664062 123.230469 C 114.304688 123.230469 114.945312 122.988281 115.429688 122.5 C 117.070312 120.859375 117.976562 118.675781 117.976562 116.355469 C 117.976562 114.035156 117.070312 111.855469 115.429688 110.214844 C 114.457031 109.238281 112.875 109.238281 111.898438 110.214844 Z M 111.898438 110.214844 "/>
<path style=" stroke:none;fill-rule:nonzero;fill:#0165fc;fill-opacity:1;" d="M 123.5 105.476562 C 122.527344 104.5 120.945312 104.5 119.96875 105.476562 C 118.992188 106.453125 118.992188 108.035156 119.96875 109.011719 C 124.019531 113.0625 124.019531 119.652344 119.96875 123.703125 C 118.992188 124.679688 118.992188 126.257812 119.96875 127.234375 C 120.457031 127.722656 121.09375 127.96875 121.734375 127.96875 C 122.375 127.96875 123.011719 127.722656 123.5 127.234375 C 129.5 121.238281 129.5 111.476562 123.5 105.476562 Z M 123.5 105.476562 "/>
<path style=" stroke:none;fill-rule:nonzero;fill:#0165fc;fill-opacity:1;" d="M 54.714844 13.523438 C 54.714844 14.902344 53.59375 16.023438 52.214844 16.023438 C 50.835938 16.023438 49.714844 14.902344 49.714844 13.523438 C 49.714844 12.144531 50.835938 11.027344 52.214844 11.027344 C 53.59375 11.027344 54.714844 12.144531 54.714844 13.523438 Z M 54.714844 13.523438 "/>
</g>
</svg>