<svg xmlns="http://www.w3.org/2000/svg" xmlns:xlink="http://www.w3.org/1999/xlink" width="128px" height="128px" viewBox="0 0 128 128" version="1.1">
<g id="surface1">
<path style=" stroke:none;fill-rule:nonzero;fill:#0165fc;fill-opacity:1;" d="M 57.863281 79.65625 C 56.003906 79.65625 54.5 78.152344 54.5 76.292969 L 54.5 55.507812 C 54.5 50.351562 50.308594 46.160156 45.152344 46.160156 C 43.296875 46.160156 41.792969 44.65625 41.792969 42.796875 C 41.792969 40.941406 43.296875 39.4375 45.152344 39.4375 C 54.015625 39.4375 61.222656 46.644531 61.222656 55.507812 L 61.222656 76.292969 C 61.222656 78.152344 59.71875 79.65625 57.863281 79.65625 Z M 57.863281 79.65625 "/>
<path style=" stroke:none;fill-rule:nonzero;fill:#d3e6ff;fill-opacity:1;" d="M 3.363281 42.800781 C 3.363281 58.175781 15.460938 70.640625 30.386719 70.640625 C 45.308594 70.640625 33.378906 50.980469 33.378906 42.800781 C 33.378906 35.628906 45.308594 14.957031 30.386719 14.957031 C 15.460938 14.957031 3.363281 27.421875 3.363281 42.800781 Z M 3.363281 42.800781 "/>
<path style=" stroke:none;fill-rule:nonzero;fill:#0165fc;fill-opacity:1;" d="M 30.382812 74 C 13.628906 74 0 60.003906 0 42.800781 C 0 25.59375 13.628906 11.597656 30.382812 11.597656 C 34.433594 11.597656 37.433594 12.871094 39.300781 15.382812 C 43.050781 20.433594 40.636719 28.421875 38.507812 35.472656 C 37.640625 38.34375 36.742188 41.316406 36.742188 42.800781 C 36.742188 44.667969 37.710938 47.902344 38.644531 51.027344 C 40.664062 57.773438 42.953125 65.417969 39.355469 70.25 C 37.5 72.738281 34.484375 74 30.382812 74 Z M 30.382812 18.320312 C 17.339844 18.320312 6.726562 29.300781 6.726562 42.796875 C 6.726562 56.296875 17.339844 67.277344 30.382812 67.277344 C 31.660156 67.277344 33.320312 67.09375 33.960938 66.234375 C 35.542969 64.109375 33.53125 57.398438 32.203125 52.957031 C 31.078125 49.199219 30.015625 45.652344 30.015625 42.796875 C 30.015625 40.324219 30.96875 37.171875 32.070312 33.527344 C 33.488281 28.828125 35.632812 21.726562 33.902344 19.390625 C 33.246094 18.507812 31.625 18.320312 30.382812 18.320312 Z M 30.382812 18.320312 "/>
<path style=" stroke:none;fill-rule:nonzero;fill:#0165fc;fill-opacity:1;" d="M 70.136719 79.65625 C 68.28125 79.65625 66.773438 78.152344 66.773438 76.292969 L 66.773438 55.507812 C 66.773438 46.644531 73.984375 39.4375 82.84375 39.4375 C 84.703125 39.4375 86.207031 40.941406 86.207031 42.800781 C 86.207031 44.65625 84.703125 46.160156 82.84375 46.160156 C 77.691406 46.160156 73.5 50.355469 73.5 55.507812 L 73.5 76.292969 C 73.5 78.152344 71.996094 79.65625 70.136719 79.65625 Z M 70.136719 79.65625 "/>
<path style=" stroke:none;fill-rule:nonzero;fill:#d3e6ff;fill-opacity:1;" d="M 124.636719 42.800781 C 124.636719 58.175781 112.539062 70.640625 97.613281 70.640625 C 82.691406 70.640625 94.621094 50.980469 94.621094 42.800781 C 94.621094 35.628906 82.691406 14.957031 97.613281 14.957031 C 112.539062 14.957031 124.636719 27.421875 124.636719 42.800781 Z M 124.636719 42.800781 "/>
<path style=" stroke:none;fill-rule:nonzero;fill:#0165fc;fill-opacity:1;" d="M 97.613281 74 C 93.515625 74 90.5 72.738281 88.644531 70.25 C 85.046875 65.417969 87.335938 57.773438 89.355469 51.027344 C 90.292969 47.902344 91.257812 44.664062 91.257812 42.800781 C 91.257812 41.316406 90.363281 38.34375 89.492188 35.472656 C 87.363281 28.421875 84.949219 20.433594 88.699219 15.382812 C 90.566406 12.871094 93.566406 11.597656 97.617188 11.597656 C 114.371094 11.597656 128 25.59375 128 42.800781 C 128 60.003906 114.371094 74 97.613281 74 Z M 97.613281 18.320312 C 96.375 18.320312 94.753906 18.507812 94.097656 19.390625 C 92.367188 21.726562 94.511719 28.828125 95.929688 33.527344 C 97.03125 37.171875 97.984375 40.324219 97.984375 42.796875 C 97.984375 45.652344 96.921875 49.199219 95.796875 52.957031 C 94.46875 57.398438 92.457031 64.109375 94.039062 66.234375 C 94.679688 67.097656 96.339844 67.277344 97.613281 67.277344 C 110.660156 67.277344 121.273438 56.296875 121.273438 42.800781 C 121.273438 29.300781 110.660156 18.320312 97.613281 18.320312 Z M 97.613281 18.320312 "/>
<path style=" stroke:none;fill-rule:nonzero;fill:#0165fc;fill-opacity:1;" d="M 68.726562 116.402344 L 59.269531 116.402344 C 56.070312 116.402344 53.421875 113.980469 53.070312 110.871094 C 44.183594 107.613281 38.960938 100.34375 38.960938 91.007812 C 38.960938 84.179688 41.667969 79.171875 47.003906 76.121094 C 51.042969 73.816406 56.601562 72.691406 64 72.691406 C 71.398438 72.691406 76.957031 73.816406 80.996094 76.121094 C 86.332031 79.171875 89.039062 84.179688 89.039062 91.007812 C 89.039062 100.34375 83.816406 107.613281 74.929688 110.871094 C 74.578125 113.980469 71.929688 116.402344 68.726562 116.402344 Z M 59.753906 109.679688 L 68.246094 109.679688 L 68.246094 108.394531 C 68.246094 106.871094 69.273438 105.535156 70.746094 105.144531 C 75.066406 104 82.3125 100.636719 82.3125 91.007812 C 82.3125 85.277344 80.136719 79.417969 64 79.417969 C 47.863281 79.417969 45.6875 85.277344 45.6875 91.007812 C 45.6875 100.636719 52.933594 103.996094 57.253906 105.144531 C 58.726562 105.535156 59.753906 106.871094 59.753906 108.394531 Z M 59.753906 109.679688 "/>
</g>
</svg>